<svg id="Group_55" data-name="Group 55" xmlns="http://www.w3.org/2000/svg" xmlns:xlink="http://www.w3.org/1999/xlink" width="15" height="15" viewBox="0 0 15 15">
  <defs>
    <clipPath id="clip-path">
      <rect id="Rectangle_55" data-name="Rectangle 55" width="15" height="15" fill="#9e0101"/>
    </clipPath>
  </defs>
  <g id="Group_54" data-name="Group 54" clip-path="url(#clip-path)">
    <path id="Path_17" data-name="Path 17" d="M12.745,15.12a.748.748,0,0,1-.532-.22L8.629,11.315a1.133,1.133,0,0,0-1.6,0L3.443,14.9a.752.752,0,0,1-1.063,0L.72,13.241a.753.753,0,0,1,0-1.064L4.3,8.592a1.132,1.132,0,0,0,0-1.6L.72,3.407a.752.752,0,0,1,0-1.064L2.344.72a.753.753,0,0,1,1.064,0L6.991,4.3a1.132,1.132,0,0,0,1.6,0L12.177.72a.753.753,0,0,1,1.064,0L14.9,2.38a.753.753,0,0,1,0,1.063L11.315,7.028a1.134,1.134,0,0,0,0,1.6L14.9,12.213a.753.753,0,0,1,0,1.063L13.276,14.9a.747.747,0,0,1-.532.22" transform="translate(-0.31 -0.31)" fill="#9e0101"/>
    <path id="Path_18" data-name="Path 18" d="M12.4.38a.559.559,0,0,1,.4.165L14.455,2.2a.562.562,0,0,1,0,.795L10.871,6.583a1.322,1.322,0,0,0,0,1.87l3.585,3.584a.562.562,0,0,1,0,.795l-1.623,1.623a.562.562,0,0,1-.795,0L8.453,10.871a1.322,1.322,0,0,0-1.87,0L3,14.455a.562.562,0,0,1-.795,0L.545,12.8a.562.562,0,0,1,0-.795L4.129,8.417a1.322,1.322,0,0,0,0-1.87L.545,2.963a.563.563,0,0,1,0-.795L2.168.545a.562.562,0,0,1,.795,0L6.547,4.129a1.322,1.322,0,0,0,1.87,0L12,.545A.559.559,0,0,1,12.4.38m0-.38a.939.939,0,0,0-.666.276L8.148,3.86a.942.942,0,0,1-1.333,0L3.231.276A.942.942,0,0,0,1.9.276L.276,1.9a.942.942,0,0,0,0,1.332L3.86,6.816a.942.942,0,0,1,0,1.332L.276,11.732a.942.942,0,0,0,0,1.332l1.659,1.659a.942.942,0,0,0,1.332,0L6.852,11.14a.942.942,0,0,1,1.332,0l3.585,3.584a.942.942,0,0,0,1.332,0L14.724,13.1a.942.942,0,0,0,0-1.332L11.14,8.184a.942.942,0,0,1,0-1.333l3.584-3.584a.942.942,0,0,0,0-1.332L13.065.276A.939.939,0,0,0,12.4,0" transform="translate(0 0)" fill="#9e0101"/>
  </g>
</svg>
