<svg id="Group_13" data-name="Group 13" xmlns="http://www.w3.org/2000/svg" xmlns:xlink="http://www.w3.org/1999/xlink" width="28" height="28" viewBox="0 0 28 28">
  <defs>
    <clipPath id="clip-path">
      <rect id="Rectangle_22" data-name="Rectangle 22" width="28" height="28" fill="#08b135"/>
    </clipPath>
  </defs>
  <g id="Group_12" data-name="Group 12" transform="translate(0 0)" clip-path="url(#clip-path)">
    <path id="Path_9" data-name="Path 9" d="M13.248.013C13.669,0,14.091,0,14.512.008c.2.008.4.022.606.041.276.015.55.058.824.091.164.024.328.055.492.082a13.337,13.337,0,0,1,1.314.3A13.968,13.968,0,0,1,26.53,7.958c.064.146.137.287.2.435.158.361.3.729.426,1.1a13.459,13.459,0,0,1,.529,2.126c.032.176.059.354.079.532.031.215.053.432.066.65a13.179,13.179,0,0,1,.044,1.411c0,.279-.015.559-.042.837-.014.19-.028.38-.055.569-.022.153-.036.307-.063.459-.05.289-.1.579-.161.866A13.982,13.982,0,0,1,19.539,26.7c-.349.15-.7.3-1.06.417-.2.065-.394.134-.594.19-.372.105-.747.2-1.126.281q-.393.076-.788.139c-.3.037-.59.081-.887.1a11.054,11.054,0,0,1-1.131.046,11.208,11.208,0,0,1-1.149-.044c-.185-.013-.369-.028-.553-.054-.153-.022-.307-.035-.459-.062-.232-.041-.464-.077-.694-.125s-.477-.106-.713-.17a13.325,13.325,0,0,1-1.428-.457,14.008,14.008,0,0,1-1.722-.8c-.12-.064-.241-.129-.357-.2A14.009,14.009,0,0,1,.8,18.594a13.9,13.9,0,0,1-.438-1.5c-.083-.346-.142-.7-.2-1.048-.022-.132-.034-.266-.053-.4-.033-.222-.042-.447-.066-.671a15.283,15.283,0,0,1-.029-1.6c.008-.2.019-.394.039-.59.017-.178.026-.358.052-.535.023-.158.036-.317.065-.475.039-.222.073-.444.119-.664a13.578,13.578,0,0,1,.857-2.707c.065-.164.146-.321.217-.482A14.05,14.05,0,0,1,7.132,1.768a13.259,13.259,0,0,1,1.3-.639A13.876,13.876,0,0,1,11.2.265c.2-.038.4-.07.593-.1.147-.026.3-.039.445-.06.2-.03.4-.038.6-.059.137-.014.275-.021.413-.029m.486,1.371a12.493,12.493,0,0,0-1.549.125c-.41.061-.817.146-1.22.242a12.641,12.641,0,0,0-2.274.81,12.876,12.876,0,0,0-1.7.968c-.235.164-.472.326-.694.508q-.428.334-.825.707c-.141.126-.27.264-.405.4A12.454,12.454,0,0,0,1.84,11.023a11.036,11.036,0,0,0-.249,1.441,11.982,11.982,0,0,0-.079,1.506,11.624,11.624,0,0,0,.068,1.2,12.031,12.031,0,0,0,.18,1.19c.06.261.114.524.187.782a12.486,12.486,0,0,0,3.374,5.7,12.538,12.538,0,0,0,3.109,2.2,13.231,13.231,0,0,0,1.251.541c.283.1.565.2.855.28a12.8,12.8,0,0,0,1.932.4l.49.05a12.893,12.893,0,0,0,2.334-.024c.25-.034.5-.055.75-.1.2-.037.409-.07.611-.118.232-.055.465-.107.695-.173a12.457,12.457,0,0,0,4.134-2.034,12.648,12.648,0,0,0,2.367-2.319c.183-.226.346-.467.513-.705.191-.284.37-.576.54-.873.135-.249.266-.5.39-.756a12.654,12.654,0,0,0,.773-2.107A12.33,12.33,0,0,0,26.4,15.4a12.85,12.85,0,0,0,.073-2.284c-.016-.219-.037-.437-.056-.655A12.5,12.5,0,0,0,21.784,4.1a12.426,12.426,0,0,0-4.813-2.365,13.055,13.055,0,0,0-1.328-.25c-.219-.033-.441-.046-.661-.07-.415-.031-.832-.04-1.249-.032" transform="translate(-0.655 -0.672)" fill="#08b135"/>
    <path id="Path_10" data-name="Path 10" d="M78.8,51.9a9.523,9.523,0,0,1,2.433-1.134c-.178.1-.362.19-.535.3A7.676,7.676,0,0,0,79,52.438a5.556,5.556,0,0,0-.956,1.4,4.493,4.493,0,0,0-.385,1.22,3.889,3.889,0,0,0-.066.829,4.45,4.45,0,0,0,.634,2.181A6.462,6.462,0,0,0,79.479,59.6c.273.245.575.454.84.708a3.714,3.714,0,0,1,.361.388,1.759,1.759,0,0,1,.337.624,1.873,1.873,0,0,1,.039.523c0,.23,0,.461,0,.691.008.2,0,.4.006.6,0,.134,0,.267,0,.4.009.324,0,.648.008.972.006.164,0,.327.007.491a2.311,2.311,0,0,1,0,.276,1.069,1.069,0,0,1-.153.009,4.6,4.6,0,0,1-1.8-.39,5.109,5.109,0,0,1-.96-.552,5.432,5.432,0,0,1-.887-.8,6.924,6.924,0,0,1-.934-1.346c-.06-.114-.126-.226-.179-.344-.065-.148-.147-.289-.206-.44a7.045,7.045,0,0,1-.454-1.7c-.028-.249-.061-.5-.068-.75a9.149,9.149,0,0,1,.263-2.631,7.944,7.944,0,0,1,.467-1.339,7.209,7.209,0,0,1,1.478-2.146A7.47,7.47,0,0,1,78.8,51.9Z" transform="translate(-71.635 -48.44)" fill="#08b135"/>
    <path id="Path_11" data-name="Path 11" d="M299.4,50.83c.154.042.3.1.455.15a9.1,9.1,0,0,1,1.051.447,7.918,7.918,0,0,1,2.013,1.4,7.248,7.248,0,0,1,1.413,1.93c.072.154.148.307.214.464a8.63,8.63,0,0,1,.631,2.673c.023.255.025.511.025.766a7.865,7.865,0,0,1-.241,1.94,5.823,5.823,0,0,1-.442,1.19,8.129,8.129,0,0,1-.609,1.081,5.88,5.88,0,0,1-1.451,1.529,4.92,4.92,0,0,1-1.989.864,3.822,3.822,0,0,1-.6.068,1.835,1.835,0,0,1-.312-.005,2.967,2.967,0,0,1,0-.363c0-.209.008-.418.006-.628.011-.395,0-.789.012-1.184,0-.134,0-.267,0-.4.01-.285,0-.57.008-.855a2.306,2.306,0,0,1,.029-.5,1.594,1.594,0,0,1,.174-.4,4.134,4.134,0,0,1,.994-1.026,6.418,6.418,0,0,0,.844-.778,5.909,5.909,0,0,0,1.055-1.588A4.559,4.559,0,0,0,303,56.57a3.638,3.638,0,0,0,.057-.746,4.612,4.612,0,0,0-.2-1.3,5.172,5.172,0,0,0-.4-.924,5.962,5.962,0,0,0-.784-1.079A7.752,7.752,0,0,0,299.721,51C299.617,50.939,299.5,50.895,299.4,50.83Z" transform="translate(-282.38 -48.501)" fill="#08b135"/>
    <path id="Path_12" data-name="Path 12" d="M66.159,103.426a1.99,1.99,0,0,1,.175-.19c-.034.052-.071.1-.11.15a2.279,2.279,0,0,0-.4.734,2.344,2.344,0,0,0-.1.562,2.28,2.28,0,0,0,.018.425,2.781,2.781,0,0,0,.493,1.187,2.061,2.061,0,0,0,.389.412,1.976,1.976,0,0,0,.3.172,3.135,3.135,0,0,1,.51.308.611.611,0,0,1,.247.494q0,6.209,0,12.419c0,.076,0,.152,0,.227a.67.67,0,0,0,.083.233.9.9,0,0,0,.179.259.229.229,0,0,0,.177.07.292.292,0,0,0,.194-.145,1.332,1.332,0,0,0,.128-.272,1.244,1.244,0,0,0,.03-.373c.008-.226,0-.453.008-.679,0-.331,0-.662,0-.992.008-.2,0-.407.006-.61.008-.226,0-.453.008-.679,0-.337,0-.673,0-1.01.008-.2,0-.407.006-.61.008-.221,0-.441.008-.662,0-.337,0-.673,0-1.01.009-.221,0-.443.011-.664a1.784,1.784,0,0,1,.012.246c.011.2.024.406.043.609s.025.387.048.58c.021.174.029.349.053.523.032.23.049.461.087.691.082.508.159,1.018.286,1.517.064.271.135.54.225.8a5.149,5.149,0,0,0,.579,1.271,2.594,2.594,0,0,0,.343.405.286.286,0,0,0,.05.04.085.085,0,0,0,.1-.032,1.028,1.028,0,0,0,.1-.165q.341-.658.693-1.31a.706.706,0,0,1,.144-.2,1.247,1.247,0,0,1,.336-.2,1.626,1.626,0,0,1,.507-.136,4.222,4.222,0,0,1,1.1.1c.207.033.416.065.625.079a5.508,5.508,0,0,0,.63-.016,5.1,5.1,0,0,0,1.4-.351,5.76,5.76,0,0,0,.86-.446,7.111,7.111,0,0,0,1.688-1.518c.065-.08.126-.163.194-.24-.067.182-.15.358-.234.533s-.16.315-.24.473a10.75,10.75,0,0,1-1,1.547,7.058,7.058,0,0,1-.749.819,4.3,4.3,0,0,1-1.261.829,2.782,2.782,0,0,1-1.466.185,3.456,3.456,0,0,1-.585-.162,3.991,3.991,0,0,1-.451-.207,3.7,3.7,0,0,1-.546-.342,6.61,6.61,0,0,0,.489.484,5.232,5.232,0,0,0,.766.575,2.531,2.531,0,0,0,.721.309,1.735,1.735,0,0,0,.25.034,2.413,2.413,0,0,1-.224.168,10.151,10.151,0,0,1-1.724.923,11.414,11.414,0,0,1-3.694.862q-.392.02-.785.02c-.28-.006-.56-.008-.839-.037a10.8,10.8,0,0,1-1.864-.305,10.645,10.645,0,0,1-1.7-.593,8.847,8.847,0,0,1-1.4-.775,2.728,2.728,0,0,1-.3-.229,3.794,3.794,0,0,0,1.067-.364,3.4,3.4,0,0,0,1.226-1.02,4.865,4.865,0,0,1-.6.325,4.212,4.212,0,0,1-.776.282,2.671,2.671,0,0,1-2.254-.441,5.119,5.119,0,0,1-.672-.565,10.887,10.887,0,0,1-1.442-1.9c-.222-.352-.423-.716-.625-1.08-.059-.115-.121-.228-.179-.343.16.164.313.335.474.5a10.858,10.858,0,0,0,1.638,1.376,4.047,4.047,0,0,0,1.38.62,4.233,4.233,0,0,0,.532.046c.156.016.312.011.469.017.284,0,.568,0,.852-.009.2-.009.408-.037.612-.061a3.028,3.028,0,0,0,.345-.068,1.068,1.068,0,0,1,.665.034,1.491,1.491,0,0,1,.639.546,3.536,3.536,0,0,1,.318.538c.065.137.138.269.2.408a3.3,3.3,0,0,0,.192.366.311.311,0,0,0,.147.144.448.448,0,0,0,.128-.171,5.313,5.313,0,0,0,.275-.733c.113-.371.212-.746.291-1.125.124-.52.183-1.052.255-1.581.032-.224.047-.449.073-.673.049-.6.107-1.2.126-1.795,0-.1.014-.209.014-.313,0-.244.014-.488.012-.732q0-.2,0-.4c0-.285-.011-.57-.012-.854-.012-.371-.04-.742-.072-1.111a7.008,7.008,0,0,0-.175-.984,4.536,4.536,0,0,0-.551-1.226,4.1,4.1,0,0,0-.623-.788,1.75,1.75,0,0,0-.783-.475,1.84,1.84,0,0,0-.258-.036,3.037,3.037,0,0,1,.071-.5,7.284,7.284,0,0,1,.38-1.27,6.075,6.075,0,0,1,.3-.658A5.666,5.666,0,0,1,66.159,103.426Z" transform="translate(-54.798 -97.812)" fill="#08b135"/>
    <path id="Path_13" data-name="Path 13" d="M207.149,107.892l.06-.011a3,3,0,0,1,.005.3v2.142a1.855,1.855,0,0,1-.008.293l-.059,0c-.053-.211-.1-.424-.147-.636-.022-.086-.033-.174-.06-.258a2.411,2.411,0,0,0-.289-.012H205.8c-.093,0-.187.005-.28,0,0-.022-.015-.051.009-.066a1.727,1.727,0,0,1,.228-.076c.192-.064.387-.122.579-.186a1.031,1.031,0,0,0,.234-.086.487.487,0,0,0,0-.095,2.1,2.1,0,0,0-.214-.072c-.176-.058-.354-.11-.529-.17-.1-.035-.206-.056-.3-.1l-.006-.061c.286-.011.573,0,.86-.007.189-.007.378,0,.567,0,.007-.022.015-.043.021-.065C207.019,108.443,207.09,108.169,207.149,107.892Z" transform="translate(-194.032 -102.183)" fill="#08b135"/>
    <path id="Path_14" data-name="Path 14" d="M238.813,107.875c.02,0,.04.007.06.011.055.216.1.436.152.652.02.08.031.162.058.24.142.01.285,0,.428,0,.29.007.58.007.871,0,.043,0,.085,0,.128,0,0,.02,0,.041-.006.061a3.344,3.344,0,0,1-.318.106c-.209.069-.42.134-.63.2-.032.01-.063.023-.094.036a.252.252,0,0,0-.007.095.788.788,0,0,0,.156.062c.274.085.547.176.822.258a.309.309,0,0,1,.064.027c.023.015.013.045.008.066-.093.007-.186,0-.279,0h-.871a2.091,2.091,0,0,0-.271.012c-.029.094-.041.192-.065.287-.053.2-.085.407-.142.606l-.06,0a1.809,1.809,0,0,1-.008-.294v-2.143A2.9,2.9,0,0,1,238.813,107.875Z" transform="translate(-225.36 -102.177)" fill="#08b135"/>
    <path id="Path_15" data-name="Path 15" d="M45.219,144.888c.063-.121.117-.247.189-.363a9.844,9.844,0,0,0-.234,2.6,8.535,8.535,0,0,0,.8,3.252,5.567,5.567,0,0,0,.59.961,9.54,9.54,0,0,0,1.115,1.185,5.092,5.092,0,0,0,.873.607,5.687,5.687,0,0,0,.559.263,6.648,6.648,0,0,0,.867.278c.215.054.437.079.647.152a1.713,1.713,0,0,1,.732.474,2.658,2.658,0,0,1,.573,1.049,3.74,3.74,0,0,1,.122.5.478.478,0,0,1,.009.129,4.866,4.866,0,0,1-1.138.347,4.208,4.208,0,0,1-.7.061,4.832,4.832,0,0,1-1.693-.288,5.506,5.506,0,0,1-.62-.265,5.868,5.868,0,0,1-1.262-.813,5.089,5.089,0,0,1-.472-.451,6.9,6.9,0,0,1-1.224-1.891,9.2,9.2,0,0,1-.358-.953c-.066-.222-.133-.443-.183-.669-.042-.165-.069-.334-.105-.5-.026-.12-.039-.243-.058-.364a6.393,6.393,0,0,1-.075-.923,9.168,9.168,0,0,1,.06-1.04c.022-.161.038-.323.065-.483a9.207,9.207,0,0,1,.208-.951A10.911,10.911,0,0,1,45.219,144.888Z" transform="translate(-42.218 -136.663)" fill="#08b135"/>
    <path id="Path_16" data-name="Path 16" d="M302.01,144.543a2.512,2.512,0,0,1,.156.3c.118.25.238.5.338.758a9.8,9.8,0,0,1,.733,3.318c0,.1,0,.2.006.3a7.517,7.517,0,0,1-.179,1.6c-.041.2-.087.4-.145.6a8.2,8.2,0,0,1-1.034,2.348,5.746,5.746,0,0,1-1.789,1.765,6.564,6.564,0,0,1-1.014.516,5.573,5.573,0,0,1-1,.287,5.279,5.279,0,0,1-1.09.069,4.512,4.512,0,0,1-1.3-.272c-.109-.045-.221-.082-.328-.131a.778.778,0,0,1,.03-.251,3.63,3.63,0,0,1,.32-.932,2.177,2.177,0,0,1,.531-.669,1.762,1.762,0,0,1,.459-.271,3.8,3.8,0,0,1,.631-.159,6.518,6.518,0,0,0,1.188-.393,5.147,5.147,0,0,0,1.553-1.094c.09-.09.181-.179.266-.274.189-.211.377-.425.553-.648a6.567,6.567,0,0,0,.939-1.881,8.638,8.638,0,0,0,.237-.9c.035-.161.059-.325.085-.488a8.109,8.109,0,0,0,.094-1.033,9.678,9.678,0,0,0-.238-2.457Z" transform="translate(-278.572 -136.68)" fill="#08b135"/>
  </g>
</svg>
