<?xml version="1.0" encoding="UTF-8"?>
<svg id="Capa_1" xmlns="http://www.w3.org/2000/svg" xmlns:xlink="http://www.w3.org/1999/xlink" version="1.1" viewBox="0 0 800 800">
  <!-- Generator: Adobe Illustrator 29.2.1, SVG Export Plug-In . SVG Version: 2.1.0 Build 116)  -->
  <defs>
    <style>
      .st0 {
        fill: #9e0101;
      }
    </style>
  </defs>
  <path class="st0" d="M703.2,109.7h-158.1V29C545.2,13,532.1,0,516.1,0h-232.2C267.9,0,254.8,13,254.8,29v80.7H96.8c-21.4,0-38.7,17.3-38.7,38.7s17.3,38.7,38.7,38.7h38.7v564.5c0,26.7,21.7,48.4,48.4,48.4h432.2c26.7,0,48.4-21.7,48.4-48.4V187.1h38.7c21.4,0,38.7-17.3,38.7-38.7s-17.4-38.7-38.7-38.7ZM274.2,690.3c0,16-13,29-29,29s-29-13-29-29v-406.4c0-16,13-29,29-29s29,13,29,29v406.4ZM429,690.3c0,16-13,29-29,29s-29-13-29-29v-406.4c0-16,13-29,29-29s29,13,29,29v406.4ZM487.1,109.7h-174.2v-51.6h174.2v51.6ZM583.9,690.3c0,16-13,29-29,29s-29-13-29-29v-406.4c0-16,13-29,29-29s29,13,29,29v406.4Z"/>
</svg>